<svg width="80" height="80" viewBox="0 0 80 80" fill="none" xmlns="http://www.w3.org/2000/svg">
<path d="M46.7969 78.4375H32.7344V65H46.7969V78.4375ZM37.4219 75.3125H42.1094V69.6875H37.4219V75.3125Z" fill="#8B8992"/>
<path d="M40 69.6875H42.1094V75.3125H40V78.4375H46.7969V65H40V69.6875Z" fill="#57555C"/>
<path d="M75.0781 58.75H4.92188V21.25H75.0781V58.75Z" fill="#9BC9FF"/>
<path d="M75.0762 21.25H39.998V58.75H75.0762V21.25Z" fill="#009AE5"/>
<path d="M51.4824 75.3125H28.0449V80H51.4824V75.3125Z" fill="#005ECE"/>
<path d="M37.4219 58.75H23.3594V26.7188H37.4219V58.75Z" fill="#B87FD9"/>
<path d="M37.4219 58.75H30.3906V26.7188H37.4219V58.75Z" fill="#8034AD"/>
<path d="M45.263 20.4688H15.3591L9.2793 0H18.2235C21.4171 0 25.1341 1.14281 28.0454 3.20344V0H51.3427L45.263 20.4688Z" fill="#8B8992"/>
<path d="M51.3442 0H30.3125V20.4688H45.2645L51.3442 0Z" fill="#57555C"/>
<path d="M38.8281 31.4062H21.9531C18.0761 31.4062 14.9219 28.252 14.9219 24.375V15.7812H45.8594V24.375C45.8594 28.252 42.7052 31.4062 38.8281 31.4062Z" fill="#E3CEF0"/>
<path d="M30.3906 15.7812V31.4062H38.8281C42.7052 31.4062 45.8594 28.252 45.8594 24.375V15.7812H30.3906Z" fill="#D5B4E8"/>
<path d="M66.829 18.4915C65.4022 18.4915 63.9944 18.1175 62.7257 17.385C60.8212 16.2853 59.4587 14.5098 58.8896 12.3854C58.3204 10.2612 58.6124 8.04246 59.7121 6.13793C60.8118 4.2334 62.5872 2.87105 64.7116 2.30184L72.6644 0.170898L74.7952 8.12371C75.3644 10.2479 75.0724 12.4667 73.9727 14.3712C72.873 16.2757 71.0977 17.6382 68.9733 18.2073C68.2641 18.3975 67.544 18.4915 66.829 18.4915Z" fill="#E0E0E2"/>
<path d="M74.7959 8.12371L72.6652 0.170898H72.665L62.7266 17.3848C63.9953 18.1173 65.4031 18.4915 66.8298 18.4914C67.545 18.4914 68.265 18.3973 68.9742 18.2073C71.0984 17.6381 72.8739 16.2757 73.9736 14.3712C75.0731 12.4667 75.3652 10.2479 74.7959 8.12371Z" fill="#ACABB1"/>
<path d="M43.8933 64.0664L31.7148 57.0351L51.2461 23.2061L63.4245 30.2373L43.8933 64.0664Z" fill="#FFE477"/>
<path d="M37.8037 60.5499L43.8926 64.0654L63.4234 30.238L57.3345 26.7224L37.8037 60.5499Z" fill="#FFA733"/>
<path d="M62.8845 35.3382L47.0977 26.2237L60.7022 10.8037L69.4363 15.8464L62.8845 35.3382Z" fill="#FF9A00"/>
<path d="M69.4373 15.8464L65.0703 13.3252L54.9922 30.781L62.8856 35.3383L69.4373 15.8464Z" fill="#E67500"/>
<path d="M75.0781 69.6875H4.92188V54.0625H75.0781V69.6875Z" fill="#005ECE"/>
<path d="M75.0762 54.0625H39.998V69.6875H75.0762V54.0625Z" fill="#003F8A"/>
<path d="M51.4824 75.3125H39.7637V80H51.4824V75.3125Z" fill="#003F8A"/>
</svg>
