<svg width="80" height="80" viewBox="0 0 80 80" fill="none" xmlns="http://www.w3.org/2000/svg">
<g clip-path="url(#clip0_3953_1128)">
<path d="M71.4688 59.5572H4.02422C1.80172 59.5572 0 57.7555 0 55.533V5.63359C0 3.41109 1.80172 1.60938 4.02422 1.60938H71.4688C73.6912 1.60938 75.493 3.41109 75.493 5.63359V55.533C75.493 57.7555 73.6912 59.5572 71.4688 59.5572Z" fill="#736572"/>
<path d="M80.0002 5.63359V55.533C80.0002 57.7559 78.1989 59.5572 75.9759 59.5572H71.147C73.37 59.5572 75.1712 57.7559 75.1712 55.533V53.9233L68.3477 35.4261L75.1712 7.24328V5.63359C75.1712 3.41063 73.37 1.60938 71.147 1.60938H75.9759C78.1989 1.60953 80.0002 3.41078 80.0002 5.63359Z" fill="#615260"/>
<path d="M74.3674 54.7284H5.63492C5.19039 54.7284 4.83008 54.368 4.83008 53.9235V16.9013L45.2924 11.6699L75.1721 16.9013V53.9235C75.1723 54.3679 74.8118 54.7284 74.3674 54.7284Z" fill="white"/>
<path d="M65.5128 32.5146H52.6355L48.7852 30.1001L52.6355 27.6855H65.5128C66.8463 27.6855 67.9273 28.7665 67.9273 30.1001C67.9272 31.4335 66.8463 32.5146 65.5128 32.5146Z" fill="#FCF1F2"/>
<path d="M52.6357 32.5146H14.4868C13.1534 32.5146 12.0723 31.4337 12.0723 30.1001C12.0723 28.7666 13.1532 27.6855 14.4868 27.6855H52.6357V32.5146Z" fill="#BAF39A"/>
<path d="M68.8652 11.8411L64.7093 16.9013H4.83008V7.24332C4.83008 6.79879 5.19039 6.43848 5.63492 6.43848H64.7093L68.8652 11.8411Z" fill="#FFE077"/>
<path d="M23.7425 13.2799C22.855 13.2799 22.1328 12.5577 22.1328 11.6702C22.1328 10.7827 22.855 10.0605 23.7425 10.0605C24.63 10.0605 25.3522 10.7827 25.3522 11.6702C25.3522 12.5577 24.63 13.2799 23.7425 13.2799Z" fill="#FFC263"/>
<path d="M18.1077 13.2799C17.2202 13.2799 16.498 12.5577 16.498 11.6702C16.498 10.7827 17.2202 10.0605 18.1077 10.0605C18.9952 10.0605 19.7174 10.7827 19.7174 11.6702C19.7174 12.5577 18.9952 13.2799 18.1077 13.2799Z" fill="#FFC263"/>
<path d="M12.4749 13.2799C11.5874 13.2799 10.8652 12.5577 10.8652 11.6702C10.8652 10.7827 11.5874 10.0605 12.4749 10.0605C13.3624 10.0605 14.0846 10.7827 14.0846 11.6702C14.0846 12.5577 13.3624 13.2799 12.4749 13.2799Z" fill="#FFC263"/>
<path d="M64.709 6.43848H74.3669C74.8115 6.43848 75.1718 6.79879 75.1718 7.24332V16.9013H64.709V6.43848Z" fill="#FFC263"/>
<path d="M40.0001 51.7502C39.3333 51.7502 38.793 51.2098 38.793 50.543V44.7482C38.793 44.0813 39.3334 43.541 40.0001 43.541C40.6669 43.541 41.2073 44.0815 41.2073 44.7482V50.543C41.2073 51.2098 40.667 51.7502 40.0001 51.7502Z" fill="#FCF1F2"/>
<path d="M46.5202 48.2891V47.3234C46.5202 44.3745 48.5025 41.8887 51.2073 41.1259C51.7642 40.9688 54.5105 42.3012 55.5838 44.529L62.3181 58.5079C63.998 61.9948 64.8702 65.8154 64.8702 69.6857V71.9512C64.8702 75.5071 61.9875 78.3898 58.4316 78.3898H58.7534C55.1975 78.3898 52.3148 75.5071 52.3148 71.9512C52.3148 70.4088 51.9923 68.8834 51.368 67.4731L50.8497 66.3021C50.3341 65.1371 49.1798 64.3859 47.9059 64.3859H32.0963C30.8223 64.3859 29.6681 65.1371 29.1525 66.3021L28.6342 67.4731C28.0098 68.8835 27.6873 70.4088 27.6873 71.9512C27.6873 75.5071 24.8047 78.3898 21.2488 78.3898H17.0636C13.5077 78.3898 10.625 75.5071 10.625 71.9512V69.6857C10.625 65.8154 11.4973 61.9948 13.1772 58.5079L19.9116 44.529C20.9848 42.3012 23.2392 40.8848 25.7122 40.8848H27.0436C30.5995 40.8848 33.4822 43.7674 33.4822 47.3234V48.2891C33.4822 49.1782 34.2028 49.8988 35.0919 49.8988H44.9108C45.7995 49.8988 46.5202 49.1782 46.5202 48.2891Z" fill="#BCF1F8"/>
<path d="M69.3767 69.6865V71.9513C69.3767 75.5071 66.4939 78.3899 62.9381 78.3899H58.753C58.6483 78.3899 58.5438 78.3866 58.4408 78.3818C61.842 78.2096 64.5478 75.3959 64.5478 71.9512V69.6863C64.5478 65.8151 63.6753 61.9954 61.9966 58.5073L55.2617 44.529C54.4489 42.8421 52.9583 41.6204 51.207 41.1262C51.7641 40.9684 52.3516 40.8848 52.9583 40.8848H54.2895C56.762 40.8848 59.017 42.3013 60.0908 44.529L66.8256 58.5073C68.5044 61.9955 69.3767 65.8152 69.3767 69.6865Z" fill="#91F2F2"/>
<path d="M24.7078 61.1664C22.4853 61.1664 20.6836 59.3647 20.6836 57.1424C20.6836 54.9199 22.4853 53.1182 24.7078 53.1182C26.9303 53.1182 28.732 54.9199 28.732 57.1424C28.7319 59.3647 26.9303 61.1664 24.7078 61.1664Z" fill="white"/>
<path d="M59.3159 55.9352H56.499V53.1183C56.499 52.4514 55.9585 51.9111 55.2918 51.9111C54.6249 51.9111 54.0846 52.4516 54.0846 53.1183V55.9352H51.2677C50.6009 55.9352 50.0605 56.4757 50.0605 57.1424C50.0605 57.8091 50.601 58.3496 51.2677 58.3496H54.0846V61.1664C54.0846 61.8333 54.6251 62.3736 55.2918 62.3736C55.9587 62.3736 56.499 61.8332 56.499 61.1664V58.3496H59.3159C59.9827 58.3496 60.523 57.8091 60.523 57.1424C60.523 56.4757 59.9826 55.9352 59.3159 55.9352Z" fill="white"/>
<path d="M45.6336 60.764H42.4142C41.7473 60.764 41.207 60.2235 41.207 59.5568C41.207 58.8901 41.7475 58.3496 42.4142 58.3496H45.6336C46.3005 58.3496 46.8408 58.8901 46.8408 59.5568C46.8408 60.2235 46.3005 60.764 45.6336 60.764Z" fill="#7DE8F9"/>
<path d="M37.5848 60.764H34.3654C33.6985 60.764 33.1582 60.2235 33.1582 59.5568C33.1582 58.8901 33.6987 58.3496 34.3654 58.3496H37.5848C38.2516 58.3496 38.792 58.8901 38.792 59.5568C38.792 60.2235 38.2516 60.764 37.5848 60.764Z" fill="#7DE8F9"/>
<path d="M40.0005 46.1162C38.4447 46.1162 37.1836 44.8551 37.1836 43.2993C37.1836 41.7435 38.4447 40.4824 40.0005 40.4824C41.5562 40.4824 42.8173 41.7435 42.8173 43.2993C42.8173 44.8549 41.5562 46.1162 40.0005 46.1162Z" fill="#CBB0F2"/>
</g>
<defs>
<clipPath id="clip0_3953_1128">
<rect width="80" height="80" fill="white"/>
</clipPath>
</defs>
</svg>
