<svg width="12" height="13" viewBox="0 0 12 13" fill="none" xmlns="http://www.w3.org/2000/svg">
<path id="Mask" fill-rule="evenodd" clip-rule="evenodd" d="M7.75 6.99992H6.58333V5.83325C6.58333 5.51067 6.322 5.24992 6 5.24992C5.678 5.24992 5.41667 5.51067 5.41667 5.83325V7.58325C5.41667 7.90583 5.678 8.16658 6 8.16658H7.75C8.072 8.16658 8.33333 7.90583 8.33333 7.58325C8.33333 7.26067 8.072 6.99992 7.75 6.99992ZM6 11.5208C3.82883 11.5208 2.0625 9.75442 2.0625 7.58325C2.0625 5.41209 3.82883 3.64575 6 3.64575C8.17117 3.64575 9.9375 5.41209 9.9375 7.58325C9.9375 9.75442 8.17117 11.5208 6 11.5208ZM6.57633 2.36709C6.5775 2.35484 6.58333 2.3455 6.58333 2.33325V1.74992H7.16667C7.48867 1.74992 7.75 1.48917 7.75 1.16659C7.75 0.844002 7.48867 0.583252 7.16667 0.583252H4.83333C4.51133 0.583252 4.25 0.844002 4.25 1.16659C4.25 1.48917 4.51133 1.74992 4.83333 1.74992H5.41667V2.33325C5.41667 2.3455 5.4225 2.35484 5.42367 2.36709C2.79925 2.65525 0.75 4.88359 0.75 7.58325C0.75 10.4783 3.1055 12.8333 6 12.8333C8.8945 12.8333 11.25 10.4783 11.25 7.58325C11.25 4.88359 9.20075 2.65525 6.57633 2.36709Z" fill="#373737"/>
</svg>
